<svg width="25" height="35" viewBox="0 0 25 35" fill="none" xmlns="http://www.w3.org/2000/svg">
<path d="M12.5 13.125V17.5L14.6875 19.6875M19.0771 25.3021L18.5667 30.8875C18.501 31.6147 18.1649 32.2908 17.6249 32.7822C17.0848 33.2736 16.3801 33.5446 15.65 33.5417H9.33541C8.60527 33.5446 7.90057 33.2736 7.36054 32.7822C6.82052 32.2908 6.48446 31.6147 6.41875 30.8875L5.90833 25.3021M5.92291 9.69792L6.43333 4.1125C6.49882 3.38782 6.83281 2.71379 7.36975 2.22273C7.90668 1.73166 8.60778 1.45902 9.33541 1.45834H15.6792C16.4093 1.45537 17.114 1.72638 17.654 2.2178C18.1941 2.70922 18.5301 3.38531 18.5958 4.1125L19.1062 9.69792M22.7083 17.5C22.7083 23.1379 18.1379 27.7083 12.5 27.7083C6.86209 27.7083 2.29166 23.1379 2.29166 17.5C2.29166 11.8621 6.86209 7.29167 12.5 7.29167C18.1379 7.29167 22.7083 11.8621 22.7083 17.5Z" stroke="#1E1E1E" stroke-width="4" stroke-linecap="round" stroke-linejoin="round"/>
</svg>
