<svg width="35" height="35" viewBox="0 0 35 35" fill="none" xmlns="http://www.w3.org/2000/svg">
<path d="M1.45831 1.45834H7.29165L11.2 20.9854C11.3333 21.6568 11.6986 22.26 12.2318 22.6892C12.765 23.1184 13.4322 23.3465 14.1166 23.3333H28.2916C28.976 23.3465 29.6433 23.1184 30.1765 22.6892C30.7097 22.26 31.075 21.6568 31.2083 20.9854L33.5416 8.75001H8.74998M14.5833 30.625C14.5833 31.4304 13.9304 32.0833 13.125 32.0833C12.3196 32.0833 11.6666 31.4304 11.6666 30.625C11.6666 29.8196 12.3196 29.1667 13.125 29.1667C13.9304 29.1667 14.5833 29.8196 14.5833 30.625ZM30.625 30.625C30.625 31.4304 29.9721 32.0833 29.1666 32.0833C28.3612 32.0833 27.7083 31.4304 27.7083 30.625C27.7083 29.8196 28.3612 29.1667 29.1666 29.1667C29.9721 29.1667 30.625 29.8196 30.625 30.625Z" stroke="#1E1E1E" stroke-width="4" stroke-linecap="round" stroke-linejoin="round"/>
</svg>
