<svg width="31" height="31" viewBox="0 0 31 31" fill="none" xmlns="http://www.w3.org/2000/svg">
<path d="M6.53121 22.9375C7.77079 21.9896 9.15621 21.2422 10.6875 20.6953C12.2187 20.1484 13.8229 19.875 15.5 19.875C17.177 19.875 18.7812 20.1484 20.3125 20.6953C21.8437 21.2422 23.2291 21.9896 24.4687 22.9375C25.3194 21.941 25.9817 20.8108 26.4557 19.5469C26.9296 18.283 27.1666 16.934 27.1666 15.5C27.1666 12.2674 26.0303 9.51475 23.7578 7.24218C21.4852 4.96961 18.7326 3.83332 15.5 3.83332C12.2673 3.83332 9.51472 4.96961 7.24215 7.24218C4.96958 9.51475 3.83329 12.2674 3.83329 15.5C3.83329 16.934 4.07027 18.283 4.54423 19.5469C5.01819 20.8108 5.68051 21.941 6.53121 22.9375ZM15.5 16.9583C14.0659 16.9583 12.8567 16.4661 11.8724 15.4818C10.888 14.4974 10.3958 13.2882 10.3958 11.8542C10.3958 10.4201 10.888 9.21093 11.8724 8.22655C12.8567 7.24218 14.0659 6.74999 15.5 6.74999C16.934 6.74999 18.1432 7.24218 19.1276 8.22655C20.1119 9.21093 20.6041 10.4201 20.6041 11.8542C20.6041 13.2882 20.1119 14.4974 19.1276 15.4818C18.1432 16.4661 16.934 16.9583 15.5 16.9583ZM15.5 30.0833C13.4826 30.0833 11.5868 29.7005 9.81246 28.9349C8.03815 28.1693 6.49475 27.1302 5.18225 25.8177C3.86975 24.5052 2.83069 22.9618 2.06506 21.1875C1.29944 19.4132 0.916626 17.5174 0.916626 15.5C0.916626 13.4826 1.29944 11.5868 2.06506 9.81249C2.83069 8.03818 3.86975 6.49478 5.18225 5.18228C6.49475 3.86978 8.03815 2.83072 9.81246 2.06509C11.5868 1.29947 13.4826 0.916656 15.5 0.916656C17.5173 0.916656 19.4132 1.29947 21.1875 2.06509C22.9618 2.83072 24.5052 3.86978 25.8177 5.18228C27.1302 6.49478 28.1692 8.03818 28.9349 9.81249C29.7005 11.5868 30.0833 13.4826 30.0833 15.5C30.0833 17.5174 29.7005 19.4132 28.9349 21.1875C28.1692 22.9618 27.1302 24.5052 25.8177 25.8177C24.5052 27.1302 22.9618 28.1693 21.1875 28.9349C19.4132 29.7005 17.5173 30.0833 15.5 30.0833Z" fill="#1D1B20"/>
</svg>
