<svg width="34" height="34" viewBox="0 0 34 34" fill="none" xmlns="http://www.w3.org/2000/svg">
<path d="M20.9479 7.29168C22.3723 7.56958 23.6814 8.26622 24.7076 9.29242C25.7338 10.3186 26.4304 11.6277 26.7083 13.0521M20.9479 1.45834C23.9073 1.7871 26.6669 3.11235 28.7737 5.21648C30.8805 7.32061 32.2092 10.0786 32.5417 13.0375M31.0833 24.675V29.05C31.085 29.4562 31.0018 29.8582 30.8391 30.2303C30.6764 30.6024 30.4377 30.9365 30.1385 31.2111C29.8392 31.4856 29.4858 31.6947 29.1011 31.8248C28.7164 31.9549 28.3087 32.0032 27.9042 31.9667C23.4166 31.4791 19.106 29.9456 15.3188 27.4896C11.7952 25.2506 8.80779 22.2632 6.56875 18.7396C4.10414 14.9351 2.57036 10.6035 2.09167 6.09584C2.05523 5.69257 2.10316 5.28612 2.2324 4.90238C2.36165 4.51864 2.56938 4.16602 2.84237 3.86696C3.11536 3.5679 3.44764 3.32896 3.81803 3.16535C4.18843 3.00175 4.58883 2.91706 4.99375 2.91668H9.36875C10.0765 2.90971 10.7626 3.16033 11.2992 3.62183C11.8359 4.08332 12.1864 4.7242 12.2854 5.42501C12.4701 6.82511 12.8125 8.19982 13.3063 9.52293C13.5025 10.0449 13.5449 10.6122 13.4286 11.1575C13.3123 11.7029 13.0421 12.2035 12.65 12.6L10.7979 14.4521C12.8739 18.1031 15.8969 21.1261 19.5479 23.2021L21.4 21.35C21.7965 20.9579 22.2971 20.6877 22.8425 20.5714C23.3878 20.4551 23.9551 20.4975 24.4771 20.6938C25.8002 21.1875 27.1749 21.5299 28.575 21.7146C29.2834 21.8145 29.9304 22.1714 30.3929 22.7172C30.8553 23.263 31.1011 23.9598 31.0833 24.675Z" stroke="#1E1E1E" stroke-width="4" stroke-linecap="round" stroke-linejoin="round"/>
</svg>
