<svg width="54" height="39" viewBox="0 0 54 39" fill="none" xmlns="http://www.w3.org/2000/svg">
<path d="M50.715 7.91008C50.4477 6.8818 49.9034 5.93965 49.137 5.17879C48.3706 4.41794 47.4092 3.86531 46.35 3.57675C42.48 2.66675 27 2.66675 27 2.66675C27 2.66675 11.52 2.66675 7.65 3.66341C6.59081 3.95198 5.62945 4.5046 4.86303 5.26546C4.09662 6.02632 3.55228 6.96847 3.285 7.99675C2.57674 11.7788 2.23029 15.6154 2.25 19.4584C2.22476 23.3303 2.57123 27.1962 3.285 31.0067C3.57966 32.0031 4.13619 32.9094 4.90083 33.6381C5.66546 34.3668 6.61235 34.8933 7.65 35.1667C11.52 36.1634 27 36.1634 27 36.1634C27 36.1634 42.48 36.1634 46.35 35.1667C47.4092 34.8782 48.3706 34.3256 49.137 33.5647C49.9034 32.8038 50.4477 31.8617 50.715 30.8334C51.4178 27.0799 51.7642 23.2725 51.75 19.4584C51.7753 15.5865 51.4288 11.7206 50.715 7.91008Z" stroke="#1E1E1E" stroke-width="4" stroke-linecap="round" stroke-linejoin="round"/>
<path d="M21.9375 26.5434L34.875 19.4584L21.9375 12.3734V26.5434Z" stroke="#1E1E1E" stroke-width="4" stroke-linecap="round" stroke-linejoin="round"/>
</svg>
